<svg width="100" height="100" viewBox="0 0 100 100" xmlns="http://www.w3.org/2000/svg">
  <defs>
    <linearGradient id="poleGradient" x1="0%" y1="0%" x2="100%" y2="0%">
      <stop offset="0%" style="stop-color:#cccccc;stop-opacity:1" />
      <stop offset="50%" style="stop-color:#ffffff;stop-opacity:1" />
      <stop offset="100%" style="stop-color:#cccccc;stop-opacity:1" />
    </linearGradient>
    <linearGradient id="chainGradient" x1="0%" y1="0%" x2="0%" y2="100%">
      <stop offset="0%" style="stop-color:#e0e0e0;stop-opacity:1" />
      <stop offset="100%" style="stop-color:#b0b0b0;stop-opacity:1" />
    </linearGradient>
    <radialGradient id="basketGradient" cx="50%" cy="50%" r="50%" fx="50%" fy="50%">
      <stop offset="0%" style="stop-color:#f0f0f0;stop-opacity:1" />
      <stop offset="100%" style="stop-color:#c0c0c0;stop-opacity:1" />
    </radialGradient>
  </defs>

  <!-- Pole -->
  <rect x="48" y="10" width="4" height="80" fill="url(#poleGradient)" />

  <!-- Top Band -->
  <rect x="30" y="10" width="40" height="6" rx="2" ry="2" fill="#a0a0a0" />

  <!-- Basket Cage -->
  <ellipse cx="50" cy="60" rx="25" ry="8" fill="url(#basketGradient)" stroke="#888888" stroke-width="1.5"/>
  <!-- Vertical bars -->
  <path d="M 28 60 Q 28 65 35 67" stroke="#888888" stroke-width="1" fill="none"/>
  <path d="M 40 60 Q 40 66 45 68" stroke="#888888" stroke-width="1" fill="none"/>
  <path d="M 50 60 V 68" stroke="#888888" stroke-width="1" fill="none"/>
  <path d="M 60 60 Q 60 66 55 68" stroke="#888888" stroke-width="1" fill="none"/>
  <path d="M 72 60 Q 72 65 65 67" stroke="#888888" stroke-width="1" fill="none"/>


  <!-- Chains -->
  <line x1="40" y1="16" x2="45" y2="55" stroke="url(#chainGradient)" stroke-width="1.5" />
  <line x1="60" y1="16" x2="55" y2="55" stroke="url(#chainGradient)" stroke-width="1.5" />
  <line x1="50" y1="16" x2="50" y2="58" stroke="url(#chainGradient)" stroke-width="1.5" />
  <line x1="35" y1="16" x2="40" y2="56" stroke="url(#chainGradient)" stroke-width="1.5" />
  <line x1="65" y1="16" x2="60" y2="56" stroke="url(#chainGradient)" stroke-width="1.5" />

</svg> 